# xmcd CD database file
#
# Track frame offsets:
#	183
#	14373
#	28613
#	42803
#	55083
#	69258
#	82943
#	95948
#	110475
#	125928
#	138263
#	150240
#	165270
#	180050
#	194033
#	207773
#	220288
#	234390
#	244600
#	258160
#	268875
#	282403
#	294823
#	307663
#
# Disc length: 4254 seconds
#
# Revision: 0
# Processed by: cddbd v1.4PL0 Copyright (c) Steve Scherf et al.
# Submitted via: CDex 1.50beta9
#
DISCID=43109c18
DTITLE=Art Tatum - The Chronological Classics 1934-1940
DYEAR=1991
DGENRE=Jazz
TTITLE0=Liza
TTITLE1=Take Me Back To My Boots And Saddle
TTITLE2=Body And Soul
TTITLE3=With Plenty Of Money And You
TTITLE4=What Will I Tell My Heart?
TTITLE5=I've Got My Love To Keep Me Warm
TTITLE6=Gone With The Wind
TTITLE7=Stormy Weather
TTITLE8=Chlo-E
TTITLE9=The Sheik Of Araby
TTITLE10=Tea For Two
TTITLE11=Deep Purple
TTITLE12=Elegie
TTITLE13=Humoresque
TTITLE14=Sweet Lorraine
TTITLE15=Get Happy
TTITLE16=Lullaby Of The Leaves
TTITLE17=Tiger Rag
TTITLE18=Sweet Emaline, My Gal
TTITLE19=Emaline
TTITLE20=Moonglow
TTITLE21=Love Me
TTITLE22=Cocktails For You
TTITLE23=St. Louis Blues
EXTD=YEAR: 1991
EXTT0=
EXTT1=
EXTT2=
EXTT3=
EXTT4=
EXTT5=
EXTT6=
EXTT7=
EXTT8=
EXTT9=
EXTT10=
EXTT11=
EXTT12=
EXTT13=
EXTT14=
EXTT15=
EXTT16=
EXTT17=
EXTT18=
EXTT19=
EXTT20=
EXTT21=
EXTT22=
EXTT23=
PLAYORDER=
